<svg width="38" height="17" viewBox="0 0 38 17" fill="none" xmlns="http://www.w3.org/2000/svg">
<path d="M15.9569 16.5436L15.945 16.5408L15.9077 16.5297C15.6891 16.4643 15.4722 16.3972 15.2572 16.3284C12.6718 15.4929 10.2557 14.5114 8.04895 13.4002C4.14082 11.417 0 8.47412 0 4.84951C0 2.1449 4.18498 6.55379e-05 9.23617 6.55379e-05C10.6404 -0.00367493 12.028 0.164799 13.296 0.492958C14.564 0.821118 15.6796 1.30052 16.5599 1.8955C17.4404 1.3004 18.5562 0.820922 19.8245 0.492757C21.0928 0.164593 22.4808 -0.00381402 23.8853 6.55379e-05C28.9348 6.55379e-05 33.1198 2.1449 33.1198 4.84951C33.1198 8.47504 28.9789 11.418 25.0708 13.3993C22.8641 14.5105 20.448 15.492 17.8626 16.3274C17.6476 16.3966 17.4307 16.464 17.2121 16.5297L17.1747 16.5408L17.1628 16.5445L17.1577 16.5454C16.9736 16.5985 16.7683 16.6262 16.5599 16.6262C16.3515 16.6262 16.1462 16.5985 15.962 16.5454L15.9569 16.5436Z" fill="white"/>
<path d="M26.0169 13.8067L30.6609 8.87152H27.4581V5.67815L22.6539 10.6134H26.0169V13.8067ZM26.6574 15.5486C25.1806 15.5486 23.7927 15.3962 22.4938 15.0913C21.1949 14.7865 20.065 14.3728 19.1042 13.8503C18.1433 13.3277 17.3827 12.7132 16.8222 12.0068C16.2617 11.3004 15.9814 10.5456 15.9814 9.74244C15.9814 8.93926 16.2617 8.18446 16.8222 7.47805C17.3827 6.77164 18.1433 6.15716 19.1042 5.6346C20.065 5.11205 21.1949 4.69836 22.4938 4.39354C23.7927 4.08872 25.1806 3.93631 26.6574 3.93631C28.1343 3.93631 29.5221 4.08872 30.821 4.39354C32.12 4.69836 33.2498 5.11205 34.2107 5.6346C35.1715 6.15716 35.9322 6.77164 36.4927 7.47805C37.0531 8.18446 37.3334 8.93926 37.3334 9.74244C37.3334 10.5456 37.0531 11.3004 36.4927 12.0068C35.9322 12.7132 35.1715 13.3277 34.2107 13.8503C33.2498 14.3728 32.12 14.7865 30.821 15.0913C29.5221 15.3962 28.1343 15.5486 26.6574 15.5486Z" fill="#894189"/>
<path d="M26.5601 13.4372L30.782 8.95064H27.8703V6.04757L23.5029 10.5341H26.5601V13.4372ZM27.1424 15.0207C25.7999 15.0207 24.5381 14.8821 23.3573 14.605C22.1765 14.3279 21.1493 13.9518 20.2758 13.4768C19.4024 13.0017 18.7108 12.4431 18.2013 11.8009C17.6918 11.1587 17.437 10.4725 17.437 9.74238C17.437 9.01222 17.6918 8.32604 18.2013 7.68385C18.7108 7.04165 19.4024 6.48303 20.2758 6.00798C21.1493 5.53294 22.1765 5.15686 23.3573 4.87975C24.5381 4.60264 25.7999 4.46408 27.1424 4.46408C28.485 4.46408 29.7467 4.60264 30.9276 4.87975C32.1084 5.15686 33.1355 5.53294 34.009 6.00798C34.8825 6.48303 35.574 7.04165 36.0836 7.68385C36.5931 8.32604 36.8479 9.01222 36.8479 9.74238C36.8479 10.4725 36.5931 11.1587 36.0836 11.8009C35.574 12.4431 34.8825 13.0017 34.009 13.4768C33.1355 13.9518 32.1084 14.3279 30.9276 14.605C29.7467 14.8821 28.485 15.0207 27.1424 15.0207Z" fill="white"/>
</svg>
