<svg width="24" height="22" viewBox="0 0 24 22" fill="none" xmlns="http://www.w3.org/2000/svg">
<path d="M10.8201 17.9941H12.9009V16.6709C13.8918 16.5121 14.7439 16.1681 15.4573 15.6388C16.1707 15.1095 16.5274 14.3244 16.5274 13.2834C16.5274 12.5424 16.2896 11.8632 15.814 11.2456C15.3384 10.6281 14.3872 10.09 12.9604 9.63131C11.7713 9.27845 10.9489 8.9697 10.4931 8.70505C10.0373 8.4404 9.80945 8.07872 9.80945 7.62C9.80945 7.16128 9.99276 6.7996 10.3594 6.53495C10.726 6.27031 11.2561 6.13798 11.9497 6.13798C12.5838 6.13798 13.0793 6.27472 13.436 6.54818C13.7927 6.82165 14.0503 7.16128 14.2088 7.56707L16.1113 6.87899C15.8933 6.26149 15.492 5.72337 14.9074 5.26465C14.3228 4.80593 13.6738 4.55011 12.9604 4.49718V3.17395H10.8796V4.49718C9.88872 4.69125 9.11586 5.0794 8.56098 5.66162C8.0061 6.24384 7.72866 6.89664 7.72866 7.62C7.72866 8.44922 8.00114 9.11966 8.54611 9.63131C9.09108 10.143 9.94817 10.584 11.1174 10.9545C12.3659 11.3603 13.2329 11.722 13.7184 12.0396C14.2039 12.3572 14.4466 12.7718 14.4466 13.2834C14.4466 13.8656 14.2138 14.2935 13.7481 14.567C13.2824 14.8404 12.7226 14.9772 12.0686 14.9772C11.4146 14.9772 10.835 14.7963 10.3297 14.4346C9.82432 14.0729 9.45275 13.5304 9.21494 12.8071L7.25305 13.4951C7.53049 14.342 7.96151 15.0257 8.54611 15.5461C9.13072 16.0666 9.88872 16.4239 10.8201 16.618V17.9941ZM11.8902 21.1699C10.2454 21.1699 8.6997 20.892 7.25305 20.3362C5.8064 19.7805 4.54802 19.0262 3.4779 18.0735C2.40777 17.1208 1.56059 16.0005 0.936357 14.7125C0.312119 13.4246 0 12.0484 0 10.584C0 9.11966 0.312119 7.7435 0.936357 6.45556C1.56059 5.16762 2.40777 4.04728 3.4779 3.09456C4.54802 2.14183 5.8064 1.38759 7.25305 0.831834C8.6997 0.276078 10.2454 -0.00180054 11.8902 -0.00180054C13.5351 -0.00180054 15.0808 0.276078 16.5274 0.831834C17.9741 1.38759 19.2325 2.14183 20.3026 3.09456C21.3727 4.04728 22.2199 5.16762 22.8441 6.45556C23.4684 7.7435 23.7805 9.11966 23.7805 10.584C23.7805 12.0484 23.4684 13.4246 22.8441 14.7125C22.2199 16.0005 21.3727 17.1208 20.3026 18.0735C19.2325 19.0262 17.9741 19.7805 16.5274 20.3362C15.0808 20.892 13.5351 21.1699 11.8902 21.1699Z" fill="white"/>
</svg>
